<?xml version="1.0" encoding="UTF-8"?>
<svg id="Layer_1" xmlns="http://www.w3.org/2000/svg" version="1.1" viewBox="0 0 400 400">
  <!-- Generator: Adobe Illustrator 29.2.1, SVG Export Plug-In . SVG Version: 2.1.0 Build 116)  -->
  <defs>
    <style>
      .st0 {
        fill: none;
        stroke: #7f7f7f;
        stroke-miterlimit: 10;
        stroke-width: 20px;
      }
    </style>
  </defs>
  <path class="st0" d="M135.22,230.91l-6.99,66.83c-.28,2.81.93,5.56,3.23,7.22,2.28,1.66,5.28,1.97,7.87.81l61.32-27.33,61.35,27.33c1.04.45,2.13.67,3.2.67,1.63,0,3.26-.51,4.63-1.52,2.28-1.66,3.51-4.41,3.23-7.22l-6.99-66.83,44.92-49.94c1.88-2.11,2.5-5.06,1.63-7.72-.87-2.7-3.12-4.69-5.87-5.28l-65.62-13.88-33.62-58.17c-2.84-4.89-10.84-4.89-13.68,0l-33.65,58.17-65.62,13.88c-2.75.59-5,2.61-5.87,5.28s-.25,5.62,1.63,7.72l44.92,49.97Z"/>
</svg>