<?xml version="1.0" encoding="UTF-8"?>
<svg id="Layer_1" xmlns="http://www.w3.org/2000/svg" version="1.1" viewBox="0 0 400 400">
  <!-- Generator: Adobe Illustrator 29.2.1, SVG Export Plug-In . SVG Version: 2.1.0 Build 116)  -->
  <defs>
    <style>
      .st0 {
        fill: none;
        stroke: #7f7f7f;
        stroke-linecap: round;
        stroke-linejoin: round;
        stroke-width: 20px;
      }
    </style>
  </defs>
  <path class="st0" d="M125.81,155.75l-8.79-14.9c-2.84-4.78-2.07-10.89,1.87-14.8l7.97-7.97c3.91-3.95,10.02-4.72,14.8-1.87l14.9,8.78h0c1.85,1.15,4.18,1.23,6.1.19,3.79-1.91,7.71-3.54,11.74-4.85,2.09-.64,3.67-2.34,4.18-4.46l4.32-16.74h0c1.35-5.39,6.21-9.16,11.78-9.14h11.26-.01c5.57-.03,10.44,3.74,11.79,9.14l4.32,16.75h0c.5,2.12,2.1,3.81,4.18,4.44,4.02,1.33,7.95,2.95,11.73,4.87,1.92,1.04,4.26.96,6.11-.19l14.9-8.78c4.77-2.84,10.88-2.07,14.78,1.87l7.97,7.97c3.96,3.91,4.73,10.02,1.88,14.8l-8.78,14.9c-1.15,1.85-1.23,4.18-.19,6.11,1.92,3.79,3.55,7.7,4.87,11.73.64,2.09,2.32,3.67,4.44,4.18l16.75,4.32c5.4,1.36,9.17,6.21,9.14,11.78v11.27c.02,5.55-3.74,10.42-9.13,11.76l-16.75,4.32c-2.12.5-3.81,2.1-4.44,4.18-1.33,4.03-2.95,7.96-4.87,11.73-1.04,1.92-.96,4.26.19,6.12l8.78,14.9c2.84,4.77,2.07,10.86-1.88,14.78l-7.97,7.97c-3.9,3.95-10.01,4.73-14.78,1.88l-14.9-8.78h0c-1.85-1.17-4.19-1.23-6.11-.19-3.79,1.91-7.71,3.54-11.74,4.87-2.09.62-3.67,2.31-4.17,4.43l-4.32,16.75c-1.35,5.41-6.22,9.2-11.81,9.15h-11.26.01c-5.56.02-10.42-3.74-11.77-9.13l-4.32-16.75c-.51-2.12-2.1-3.81-4.18-4.44-4.03-1.33-7.96-2.95-11.74-4.87-1.91-1.04-4.25-.96-6.1.19l-14.9,8.78c-4.78,2.84-10.89,2.07-14.8-1.88l-7.97-7.97c-3.95-3.91-4.72-10.01-1.87-14.78l8.78-14.9c1.15-1.86,1.23-4.18.19-6.11-1.91-3.79-3.54-7.71-4.85-11.74-.64-2.07-2.33-3.67-4.44-4.17l-16.75-4.32h-.01c-5.4-1.36-9.17-6.22-9.13-11.79v-11.26c-.02-5.56,3.75-10.42,9.14-11.76l16.74-4.32c2.12-.51,3.81-2.1,4.46-4.18,1.32-4.03,2.94-7.96,4.85-11.73,1.04-1.92.96-4.26-.18-6.12h-.02ZM235.19,164.62c-9.25-9.26-21.8-14.46-34.89-14.46s-25.63,5.2-34.89,14.45c-9.25,9.26-14.45,21.81-14.45,34.9s5.2,25.63,14.45,34.89c9.26,9.25,21.81,14.45,34.89,14.45s25.64-5.2,34.89-14.46c9.26-9.25,14.46-21.8,14.46-34.88s-5.2-25.64-14.46-34.89h0Z"/>
</svg>